# xmcd CD database file
#
# Track frame offsets:
#	183
#	15493
#	27550
#	42350
#	57910
#	72845
#	87795
#	99903
#	115258
#	126670
#	137665
#	152728
#	166333
#	178185
#	190123
#	202015
#	216630
#	230990
#	245390
#	260255
#	274905
#	288695
#	304258
#
# Disc length: 4265 seconds
#
# Revision: 0
# Processed by: cddbd v1.5.1PL0 Copyright (c) Steve Scherf et al.
# Submitted via: CDex 1.51
#
DISCID=6110a717
DTITLE=Erskine Hawkins - 1938-1939 [Classics #667, 1992]
DYEAR=1938
DGENRE=Jazz
TTITLE0=Weary Blues
TTITLE1=King Porter Stomp
TTITLE2=Strictly Swing
TTITLE3=Do You Wanna Jump, Children?
TTITLE4=What Do You Know About Love?
TTITLE5=A Study In Blue
TTITLE6=Easy Rider
TTITLE7=Because of You
TTITLE8='I', the Living 'I'
TTITLE9=Let the Punishment Fit the Crime
TTITLE10=Swing Out
TTITLE11=Raid the Joint
TTITLE12=Big Wig In the Wigwam
TTITLE13=Polka Dotty (Come Out Tonight)
TTITLE14=No Soap (A Jitterbug Jamboree)
TTITLE15=Swingin' On Lenox Avenue
TTITLE16=Hot Platter
TTITLE17=Gin Mill Special
TTITLE18=Cherry
TTITLE19=Tuxedo Junction
TTITLE20=Weddin' Blues
TTITLE21=You Can't Escape from Me
TTITLE22=Rehearsal In Love
EXTD=YEAR: 1938
EXTT0=
EXTT1=
EXTT2=
EXTT3=
EXTT4=
EXTT5=
EXTT6=
EXTT7=
EXTT8=
EXTT9=
EXTT10=
EXTT11=
EXTT12=
EXTT13=
EXTT14=
EXTT15=
EXTT16=
EXTT17=
EXTT18=
EXTT19=
EXTT20=
EXTT21=
EXTT22=
PLAYORDER=
